<mxfile host="app.diagrams.net" modified="2024-05-01T14:27:14.801Z" agent="Mozilla/5.0 (Windows NT 10.0; Win64; x64) AppleWebKit/537.36 (KHTML, like Gecko) Chrome/124.0.0.0 Safari/537.36" etag="zJtGu6Xx8ImO0H5Q8bNz" version="24.3.1" type="device">
  <diagram name="PÃ¡gina-1" id="1SoKJMrnLya3OgbguVAE">
    <mxGraphModel dx="1114" dy="638" grid="1" gridSize="10" guides="1" tooltips="1" connect="1" arrows="1" fold="1" page="1" pageScale="1" pageWidth="827" pageHeight="1169" math="0" shadow="0">
      <root>
        <mxCell id="0" />
        <mxCell id="1" parent="0" />
        <mxCell id="jYxW6uJssfJoVXRmd2jS-1" value="&lt;p style=&quot;margin:0px;margin-top:4px;text-align:center;&quot;&gt;&lt;b&gt;Item&lt;/b&gt;&lt;/p&gt;&lt;hr size=&quot;1&quot; style=&quot;border-style:solid;&quot;&gt;&lt;p style=&quot;margin:0px;margin-left:4px;&quot;&gt;- Nombre : string&lt;/p&gt;&lt;p style=&quot;margin:0px;margin-left:4px;&quot;&gt;- Cantidad : int&lt;/p&gt;&lt;p style=&quot;margin:0px;margin-left:4px;&quot;&gt;- Durabilidad : int&amp;nbsp;&lt;/p&gt;&lt;hr size=&quot;1&quot; style=&quot;border-style:solid;&quot;&gt;&lt;p style=&quot;margin:0px;margin-left:4px;&quot;&gt;+ Usar()&lt;/p&gt;&lt;p style=&quot;margin:0px;margin-left:4px;&quot;&gt;+ Recolectar()&lt;/p&gt;&lt;p style=&quot;margin:0px;margin-left:4px;&quot;&gt;+ almacenar()&lt;/p&gt;&lt;p style=&quot;margin:0px;margin-left:4px;&quot;&gt;+ Repartir()&lt;/p&gt;" style="verticalAlign=top;align=left;overflow=fill;html=1;whiteSpace=wrap;" vertex="1" parent="1">
          <mxGeometry x="60" y="260" width="160" height="160" as="geometry" />
        </mxCell>
        <mxCell id="jYxW6uJssfJoVXRmd2jS-2" value="&lt;p style=&quot;margin:0px;margin-top:4px;text-align:center;&quot;&gt;&lt;b&gt;Personaje&lt;/b&gt;&lt;/p&gt;&lt;hr size=&quot;1&quot; style=&quot;border-style:solid;&quot;&gt;&lt;p style=&quot;margin:0px;margin-left:4px;&quot;&gt;- Energia : int&lt;/p&gt;&lt;p style=&quot;margin:0px;margin-left:4px;&quot;&gt;- Vida : int&lt;/p&gt;&lt;p style=&quot;margin:0px;margin-left:4px;&quot;&gt;- Hambre : int&lt;/p&gt;&lt;p style=&quot;margin:0px;margin-left:4px;&quot;&gt;- Nombre : String&lt;/p&gt;&lt;hr size=&quot;1&quot; style=&quot;border-style:solid;&quot;&gt;&lt;p style=&quot;margin:0px;margin-left:4px;&quot;&gt;+ Comer()&lt;/p&gt;&lt;p style=&quot;margin:0px;margin-left:4px;&quot;&gt;+ Beber()&lt;/p&gt;&lt;p style=&quot;margin:0px;margin-left:4px;&quot;&gt;+ recuperarEnergia()&lt;/p&gt;&lt;p style=&quot;margin:0px;margin-left:4px;&quot;&gt;&lt;br&gt;&lt;/p&gt;" style="verticalAlign=top;align=left;overflow=fill;html=1;whiteSpace=wrap;" vertex="1" parent="1">
          <mxGeometry x="60" y="70" width="160" height="160" as="geometry" />
        </mxCell>
        <mxCell id="jYxW6uJssfJoVXRmd2jS-8" style="edgeStyle=orthogonalEdgeStyle;rounded=0;orthogonalLoop=1;jettySize=auto;html=1;exitX=0.5;exitY=1;exitDx=0;exitDy=0;entryX=0.5;entryY=0;entryDx=0;entryDy=0;" edge="1" source="jYxW6uJssfJoVXRmd2jS-9" target="jYxW6uJssfJoVXRmd2jS-10" parent="1">
          <mxGeometry relative="1" as="geometry" />
        </mxCell>
        <mxCell id="jYxW6uJssfJoVXRmd2jS-9" value="cebarMate" style="ellipse;whiteSpace=wrap;html=1;" vertex="1" parent="1">
          <mxGeometry x="730" y="40" width="120" height="80" as="geometry" />
        </mxCell>
        <mxCell id="jYxW6uJssfJoVXRmd2jS-10" value="Cebar" style="shape=parallelogram;perimeter=parallelogramPerimeter;whiteSpace=wrap;html=1;fixedSize=1;" vertex="1" parent="1">
          <mxGeometry x="730" y="170" width="120" height="60" as="geometry" />
        </mxCell>
        <mxCell id="jYxW6uJssfJoVXRmd2jS-15" style="edgeStyle=orthogonalEdgeStyle;rounded=0;orthogonalLoop=1;jettySize=auto;html=1;exitX=0;exitY=0.5;exitDx=0;exitDy=0;entryX=0.5;entryY=0;entryDx=0;entryDy=0;" edge="1" parent="1" source="jYxW6uJssfJoVXRmd2jS-12" target="jYxW6uJssfJoVXRmd2jS-14">
          <mxGeometry relative="1" as="geometry" />
        </mxCell>
        <mxCell id="jYxW6uJssfJoVXRmd2jS-16" value="Si" style="edgeLabel;html=1;align=center;verticalAlign=middle;resizable=0;points=[];" vertex="1" connectable="0" parent="jYxW6uJssfJoVXRmd2jS-15">
          <mxGeometry x="-0.2297" relative="1" as="geometry">
            <mxPoint x="15" as="offset" />
          </mxGeometry>
        </mxCell>
        <mxCell id="jYxW6uJssfJoVXRmd2jS-18" style="edgeStyle=orthogonalEdgeStyle;rounded=0;orthogonalLoop=1;jettySize=auto;html=1;entryX=0.5;entryY=1;entryDx=0;entryDy=0;" edge="1" parent="1" source="jYxW6uJssfJoVXRmd2jS-12" target="jYxW6uJssfJoVXRmd2jS-10">
          <mxGeometry relative="1" as="geometry" />
        </mxCell>
        <mxCell id="jYxW6uJssfJoVXRmd2jS-20" style="edgeStyle=orthogonalEdgeStyle;rounded=0;orthogonalLoop=1;jettySize=auto;html=1;exitX=1;exitY=0.5;exitDx=0;exitDy=0;entryX=0.5;entryY=0;entryDx=0;entryDy=0;" edge="1" parent="1" source="jYxW6uJssfJoVXRmd2jS-12" target="jYxW6uJssfJoVXRmd2jS-19">
          <mxGeometry relative="1" as="geometry" />
        </mxCell>
        <mxCell id="jYxW6uJssfJoVXRmd2jS-21" value="No" style="edgeLabel;html=1;align=center;verticalAlign=middle;resizable=0;points=[];" vertex="1" connectable="0" parent="jYxW6uJssfJoVXRmd2jS-20">
          <mxGeometry x="-0.1546" y="1" relative="1" as="geometry">
            <mxPoint x="-17" y="1" as="offset" />
          </mxGeometry>
        </mxCell>
        <mxCell id="jYxW6uJssfJoVXRmd2jS-12" value="hayAgua?" style="rounded=0;whiteSpace=wrap;html=1;shape=rhombus;perimeter=rhombusPerimeter;" vertex="1" parent="1">
          <mxGeometry x="730" y="270" width="120" height="60" as="geometry" />
        </mxCell>
        <mxCell id="jYxW6uJssfJoVXRmd2jS-25" style="edgeStyle=orthogonalEdgeStyle;rounded=0;orthogonalLoop=1;jettySize=auto;html=1;entryX=0;entryY=0.5;entryDx=0;entryDy=0;" edge="1" parent="1" source="jYxW6uJssfJoVXRmd2jS-14" target="jYxW6uJssfJoVXRmd2jS-19">
          <mxGeometry relative="1" as="geometry" />
        </mxCell>
        <mxCell id="jYxW6uJssfJoVXRmd2jS-26" value="Si" style="edgeLabel;html=1;align=center;verticalAlign=middle;resizable=0;points=[];" vertex="1" connectable="0" parent="jYxW6uJssfJoVXRmd2jS-25">
          <mxGeometry x="-0.1112" relative="1" as="geometry">
            <mxPoint as="offset" />
          </mxGeometry>
        </mxCell>
        <mxCell id="jYxW6uJssfJoVXRmd2jS-28" style="edgeStyle=orthogonalEdgeStyle;rounded=0;orthogonalLoop=1;jettySize=auto;html=1;exitX=0;exitY=0.5;exitDx=0;exitDy=0;entryX=0.5;entryY=0;entryDx=0;entryDy=0;" edge="1" parent="1" source="jYxW6uJssfJoVXRmd2jS-14" target="jYxW6uJssfJoVXRmd2jS-27">
          <mxGeometry relative="1" as="geometry" />
        </mxCell>
        <mxCell id="jYxW6uJssfJoVXRmd2jS-29" value="No" style="edgeLabel;html=1;align=center;verticalAlign=middle;resizable=0;points=[];" vertex="1" connectable="0" parent="jYxW6uJssfJoVXRmd2jS-28">
          <mxGeometry x="-0.4764" y="-1" relative="1" as="geometry">
            <mxPoint as="offset" />
          </mxGeometry>
        </mxCell>
        <mxCell id="jYxW6uJssfJoVXRmd2jS-14" value="estaFria?" style="rounded=0;whiteSpace=wrap;html=1;shape=rhombus;perimeter=rhombusPerimeter;" vertex="1" parent="1">
          <mxGeometry x="600" y="360" width="120" height="60" as="geometry" />
        </mxCell>
        <mxCell id="jYxW6uJssfJoVXRmd2jS-34" style="edgeStyle=orthogonalEdgeStyle;rounded=0;orthogonalLoop=1;jettySize=auto;html=1;entryX=0.5;entryY=0;entryDx=0;entryDy=0;" edge="1" parent="1" source="jYxW6uJssfJoVXRmd2jS-19" target="jYxW6uJssfJoVXRmd2jS-32">
          <mxGeometry relative="1" as="geometry" />
        </mxCell>
        <mxCell id="jYxW6uJssfJoVXRmd2jS-19" value="calentarAgua" style="rounded=0;whiteSpace=wrap;html=1;" vertex="1" parent="1">
          <mxGeometry x="920" y="360" width="120" height="60" as="geometry" />
        </mxCell>
        <mxCell id="jYxW6uJssfJoVXRmd2jS-31" value="" style="edgeStyle=orthogonalEdgeStyle;rounded=0;orthogonalLoop=1;jettySize=auto;html=1;" edge="1" parent="1" source="jYxW6uJssfJoVXRmd2jS-27" target="jYxW6uJssfJoVXRmd2jS-30">
          <mxGeometry relative="1" as="geometry" />
        </mxCell>
        <mxCell id="jYxW6uJssfJoVXRmd2jS-27" value="llenarTermo" style="rounded=0;whiteSpace=wrap;html=1;" vertex="1" parent="1">
          <mxGeometry x="450" y="465" width="120" height="60" as="geometry" />
        </mxCell>
        <mxCell id="jYxW6uJssfJoVXRmd2jS-40" style="edgeStyle=orthogonalEdgeStyle;rounded=0;orthogonalLoop=1;jettySize=auto;html=1;exitX=0.5;exitY=1;exitDx=0;exitDy=0;entryX=0.5;entryY=0;entryDx=0;entryDy=0;" edge="1" parent="1" source="jYxW6uJssfJoVXRmd2jS-30" target="jYxW6uJssfJoVXRmd2jS-39">
          <mxGeometry relative="1" as="geometry" />
        </mxCell>
        <mxCell id="jYxW6uJssfJoVXRmd2jS-30" value="cebarMate" style="whiteSpace=wrap;html=1;rounded=0;" vertex="1" parent="1">
          <mxGeometry x="450" y="560" width="120" height="60" as="geometry" />
        </mxCell>
        <mxCell id="jYxW6uJssfJoVXRmd2jS-33" style="edgeStyle=orthogonalEdgeStyle;rounded=0;orthogonalLoop=1;jettySize=auto;html=1;exitX=0;exitY=0.5;exitDx=0;exitDy=0;entryX=1;entryY=0.5;entryDx=0;entryDy=0;" edge="1" parent="1" source="jYxW6uJssfJoVXRmd2jS-32" target="jYxW6uJssfJoVXRmd2jS-27">
          <mxGeometry relative="1" as="geometry" />
        </mxCell>
        <mxCell id="jYxW6uJssfJoVXRmd2jS-32" value="aguaCaliente" style="rounded=0;whiteSpace=wrap;html=1;" vertex="1" parent="1">
          <mxGeometry x="920" y="465" width="120" height="60" as="geometry" />
        </mxCell>
        <mxCell id="jYxW6uJssfJoVXRmd2jS-35" value="Fin" style="ellipse;whiteSpace=wrap;html=1;" vertex="1" parent="1">
          <mxGeometry x="540" y="910" width="120" height="80" as="geometry" />
        </mxCell>
        <mxCell id="jYxW6uJssfJoVXRmd2jS-57" value="" style="edgeStyle=orthogonalEdgeStyle;rounded=0;orthogonalLoop=1;jettySize=auto;html=1;" edge="1" parent="1" source="jYxW6uJssfJoVXRmd2jS-37" target="jYxW6uJssfJoVXRmd2jS-56">
          <mxGeometry relative="1" as="geometry" />
        </mxCell>
        <mxCell id="jYxW6uJssfJoVXRmd2jS-37" value="energiaActual =&amp;lt; 100&lt;div&gt;recuperarEnergia&lt;/div&gt;" style="rounded=0;whiteSpace=wrap;html=1;" vertex="1" parent="1">
          <mxGeometry x="450" y="720" width="120" height="60" as="geometry" />
        </mxCell>
        <mxCell id="jYxW6uJssfJoVXRmd2jS-41" style="edgeStyle=orthogonalEdgeStyle;rounded=0;orthogonalLoop=1;jettySize=auto;html=1;exitX=0.5;exitY=1;exitDx=0;exitDy=0;entryX=0.5;entryY=0;entryDx=0;entryDy=0;" edge="1" parent="1" source="jYxW6uJssfJoVXRmd2jS-39" target="jYxW6uJssfJoVXRmd2jS-37">
          <mxGeometry relative="1" as="geometry" />
        </mxCell>
        <mxCell id="jYxW6uJssfJoVXRmd2jS-39" value="tomarMate" style="rounded=0;whiteSpace=wrap;html=1;" vertex="1" parent="1">
          <mxGeometry x="450" y="640" width="120" height="60" as="geometry" />
        </mxCell>
        <mxCell id="jYxW6uJssfJoVXRmd2jS-44" value="Cebar mate para recuperar energia" style="text;html=1;align=center;verticalAlign=middle;resizable=0;points=[];autosize=1;strokeColor=#6c8ebf;fillColor=#dae8fc;" vertex="1" parent="1">
          <mxGeometry x="680" width="210" height="30" as="geometry" />
        </mxCell>
        <mxCell id="jYxW6uJssfJoVXRmd2jS-51" style="edgeStyle=orthogonalEdgeStyle;rounded=0;orthogonalLoop=1;jettySize=auto;html=1;exitX=1;exitY=0.5;exitDx=0;exitDy=0;entryX=1;entryY=0.5;entryDx=0;entryDy=0;" edge="1" parent="1" source="jYxW6uJssfJoVXRmd2jS-46" target="jYxW6uJssfJoVXRmd2jS-30">
          <mxGeometry relative="1" as="geometry">
            <mxPoint x="810" y="979.6666666666667" as="targetPoint" />
            <Array as="points">
              <mxPoint x="830" y="860" />
              <mxPoint x="830" y="590" />
            </Array>
          </mxGeometry>
        </mxCell>
        <mxCell id="jYxW6uJssfJoVXRmd2jS-52" value="No" style="edgeLabel;html=1;align=center;verticalAlign=middle;resizable=0;points=[];" vertex="1" connectable="0" parent="jYxW6uJssfJoVXRmd2jS-51">
          <mxGeometry x="-0.4836" y="1" relative="1" as="geometry">
            <mxPoint x="1" as="offset" />
          </mxGeometry>
        </mxCell>
        <mxCell id="jYxW6uJssfJoVXRmd2jS-54" style="edgeStyle=orthogonalEdgeStyle;rounded=0;orthogonalLoop=1;jettySize=auto;html=1;exitX=0;exitY=0.5;exitDx=0;exitDy=0;entryX=0.5;entryY=0;entryDx=0;entryDy=0;" edge="1" parent="1" source="jYxW6uJssfJoVXRmd2jS-46" target="jYxW6uJssfJoVXRmd2jS-35">
          <mxGeometry relative="1" as="geometry" />
        </mxCell>
        <mxCell id="jYxW6uJssfJoVXRmd2jS-55" value="Si" style="edgeLabel;html=1;align=center;verticalAlign=middle;resizable=0;points=[];" vertex="1" connectable="0" parent="jYxW6uJssfJoVXRmd2jS-54">
          <mxGeometry x="-0.2483" y="2" relative="1" as="geometry">
            <mxPoint as="offset" />
          </mxGeometry>
        </mxCell>
        <mxCell id="jYxW6uJssfJoVXRmd2jS-46" value="recuperoEnergia?" style="rhombus;whiteSpace=wrap;html=1;rounded=0;" vertex="1" parent="1">
          <mxGeometry x="650" y="820" width="160" height="80" as="geometry" />
        </mxCell>
        <mxCell id="jYxW6uJssfJoVXRmd2jS-59" style="edgeStyle=orthogonalEdgeStyle;rounded=0;orthogonalLoop=1;jettySize=auto;html=1;entryX=0.5;entryY=0;entryDx=0;entryDy=0;" edge="1" parent="1" source="jYxW6uJssfJoVXRmd2jS-56" target="jYxW6uJssfJoVXRmd2jS-46">
          <mxGeometry relative="1" as="geometry">
            <Array as="points">
              <mxPoint x="670" y="820" />
              <mxPoint x="670" y="820" />
            </Array>
          </mxGeometry>
        </mxCell>
        <mxCell id="jYxW6uJssfJoVXRmd2jS-56" value="Energia = 100" style="whiteSpace=wrap;html=1;rounded=0;shape=document;boundedLbl=1;" vertex="1" parent="1">
          <mxGeometry x="450" y="810" width="120" height="60" as="geometry" />
        </mxCell>
      </root>
    </mxGraphModel>
  </diagram>
</mxfile>
